<svg xmlns="http://www.w3.org/2000/svg" version="1.1" xmlns:xlink="http://www.w3.org/1999/xlink" xmlns:svgjs="http://svgjs.dev/svgjs" viewBox="0 0 800 800"><symbol id="SvgjsSymbol1003"><polygon points="0,12.5 25,0 50,12.5 25,25"></polygon></symbol><symbol id="SvgjsSymbol1004"><polygon points="0,12.5 25,25 25,50 0,37.5"></polygon></symbol><symbol id="SvgjsSymbol1005"><polygon points="25,25 50,12.5 50,37.5 25,50"></polygon></symbol><g shape-rendering="crispEdges"><g><use xlink:href="#SvgjsSymbol1003" x="12.5" y="137.5" fill="hsl(204, 80%, 68%)"></use><use xlink:href="#SvgjsSymbol1004" x="12.5" y="137.5" fill="#a1ecff"></use><use xlink:href="#SvgjsSymbol1005" x="12.5" y="137.5" fill="#328abc"></use></g><g><use xlink:href="#SvgjsSymbol1003" x="75" y="137.5" fill="hsl(204, 80%, 68%)"></use><use xlink:href="#SvgjsSymbol1004" x="75" y="137.5" fill="#a1ecff"></use><use xlink:href="#SvgjsSymbol1005" x="75" y="137.5" fill="#328abc"></use></g><g><use xlink:href="#SvgjsSymbol1003" x="112.5" y="137.5" fill="hsl(204, 80%, 68%)"></use><use xlink:href="#SvgjsSymbol1004" x="112.5" y="137.5" fill="#a1ecff"></use><use xlink:href="#SvgjsSymbol1005" x="112.5" y="137.5" fill="#328abc"></use></g><g><use xlink:href="#SvgjsSymbol1003" x="75" y="162.5" fill="hsl(204, 80%, 68%)"></use><use xlink:href="#SvgjsSymbol1004" x="75" y="162.5" fill="#a1ecff"></use><use xlink:href="#SvgjsSymbol1005" x="75" y="162.5" fill="#328abc"></use></g><g><use xlink:href="#SvgjsSymbol1003" x="75" y="200" fill="hsl(204, 80%, 68%)"></use><use xlink:href="#SvgjsSymbol1004" x="75" y="200" fill="#a1ecff"></use><use xlink:href="#SvgjsSymbol1005" x="75" y="200" fill="#328abc"></use></g><g><use xlink:href="#SvgjsSymbol1003" x="75" y="225" fill="hsl(204, 80%, 68%)"></use><use xlink:href="#SvgjsSymbol1004" x="75" y="225" fill="#a1ecff"></use><use xlink:href="#SvgjsSymbol1005" x="75" y="225" fill="#328abc"></use></g><g><use xlink:href="#SvgjsSymbol1003" x="75" y="275" fill="hsl(204, 80%, 68%)"></use><use xlink:href="#SvgjsSymbol1004" x="75" y="275" fill="#a1ecff"></use><use xlink:href="#SvgjsSymbol1005" x="75" y="275" fill="#328abc"></use></g><g><use xlink:href="#SvgjsSymbol1003" x="150" y="137.5" fill="hsl(204, 80%, 68%)"></use><use xlink:href="#SvgjsSymbol1004" x="150" y="137.5" fill="#a1ecff"></use><use xlink:href="#SvgjsSymbol1005" x="150" y="137.5" fill="#328abc"></use></g><g><use xlink:href="#SvgjsSymbol1003" x="50" y="137.5" fill="hsl(204, 80%, 68%)"></use><use xlink:href="#SvgjsSymbol1004" x="50" y="137.5" fill="#a1ecff"></use><use xlink:href="#SvgjsSymbol1005" x="50" y="137.5" fill="#328abc"></use></g><g><use xlink:href="#SvgjsSymbol1003" x="225" y="137.5" fill="hsl(176, 57%, 55%)"></use><use xlink:href="#SvgjsSymbol1004" x="225" y="137.5" fill="#84fff8"></use><use xlink:href="#SvgjsSymbol1005" x="225" y="137.5" fill="#009c95"></use></g><g><use xlink:href="#SvgjsSymbol1003" x="187.5" y="175" fill="hsl(176, 57%, 55%)"></use><use xlink:href="#SvgjsSymbol1004" x="187.5" y="175" fill="#84fff8"></use><use xlink:href="#SvgjsSymbol1005" x="187.5" y="175" fill="#009c95"></use></g><g><use xlink:href="#SvgjsSymbol1003" x="175" y="212.5" fill="hsl(176, 57%, 55%)"></use><use xlink:href="#SvgjsSymbol1004" x="175" y="212.5" fill="#84fff8"></use><use xlink:href="#SvgjsSymbol1005" x="175" y="212.5" fill="#009c95"></use></g><g><use xlink:href="#SvgjsSymbol1003" x="200" y="262.5" fill="hsl(176, 57%, 55%)"></use><use xlink:href="#SvgjsSymbol1004" x="200" y="262.5" fill="#84fff8"></use><use xlink:href="#SvgjsSymbol1005" x="200" y="262.5" fill="#009c95"></use></g><g><use xlink:href="#SvgjsSymbol1003" x="212.5" y="287.5" fill="hsl(176, 57%, 55%)"></use><use xlink:href="#SvgjsSymbol1004" x="212.5" y="287.5" fill="#84fff8"></use><use xlink:href="#SvgjsSymbol1005" x="212.5" y="287.5" fill="#009c95"></use></g><g><use xlink:href="#SvgjsSymbol1003" x="262.5" y="287.5" fill="hsl(176, 57%, 55%)"></use><use xlink:href="#SvgjsSymbol1004" x="262.5" y="287.5" fill="#84fff8"></use><use xlink:href="#SvgjsSymbol1005" x="262.5" y="287.5" fill="#009c95"></use></g><g><use xlink:href="#SvgjsSymbol1003" x="275" y="262.5" fill="hsl(176, 57%, 55%)"></use><use xlink:href="#SvgjsSymbol1004" x="275" y="262.5" fill="#84fff8"></use><use xlink:href="#SvgjsSymbol1005" x="275" y="262.5" fill="#009c95"></use></g><g><use xlink:href="#SvgjsSymbol1003" x="287.5" y="225" fill="hsl(176, 57%, 55%)"></use><use xlink:href="#SvgjsSymbol1004" x="287.5" y="225" fill="#84fff8"></use><use xlink:href="#SvgjsSymbol1005" x="287.5" y="225" fill="#009c95"></use></g><g><use xlink:href="#SvgjsSymbol1003" x="275" y="200" fill="hsl(176, 57%, 55%)"></use><use xlink:href="#SvgjsSymbol1004" x="275" y="200" fill="#84fff8"></use><use xlink:href="#SvgjsSymbol1005" x="275" y="200" fill="#009c95"></use></g><g><use xlink:href="#SvgjsSymbol1003" x="262.5" y="162.5" fill="hsl(176, 57%, 55%)"></use><use xlink:href="#SvgjsSymbol1004" x="262.5" y="162.5" fill="#84fff8"></use><use xlink:href="#SvgjsSymbol1005" x="262.5" y="162.5" fill="#009c95"></use></g><g><use xlink:href="#SvgjsSymbol1003" x="250" y="162.5" fill="hsl(176, 57%, 55%)"></use><use xlink:href="#SvgjsSymbol1004" x="250" y="162.5" fill="#84fff8"></use><use xlink:href="#SvgjsSymbol1005" x="250" y="162.5" fill="#009c95"></use></g><g><use xlink:href="#SvgjsSymbol1003" x="387.5" y="137.5" fill="hsl(44, 63%, 39%)"></use><use xlink:href="#SvgjsSymbol1004" x="387.5" y="137.5" fill="#d6b054"></use><use xlink:href="#SvgjsSymbol1005" x="387.5" y="137.5" fill="#705500"></use></g><g><use xlink:href="#SvgjsSymbol1003" x="387.5" y="187.5" fill="hsl(44, 63%, 39%)"></use><use xlink:href="#SvgjsSymbol1004" x="387.5" y="187.5" fill="#d6b054"></use><use xlink:href="#SvgjsSymbol1005" x="387.5" y="187.5" fill="#705500"></use></g><g><use xlink:href="#SvgjsSymbol1003" x="400" y="225" fill="hsl(44, 63%, 39%)"></use><use xlink:href="#SvgjsSymbol1004" x="400" y="225" fill="#d6b054"></use><use xlink:href="#SvgjsSymbol1005" x="400" y="225" fill="#705500"></use></g><g><use xlink:href="#SvgjsSymbol1003" x="387.5" y="262.5" fill="hsl(44, 63%, 39%)"></use><use xlink:href="#SvgjsSymbol1004" x="387.5" y="262.5" fill="#d6b054"></use><use xlink:href="#SvgjsSymbol1005" x="387.5" y="262.5" fill="#705500"></use></g><g><use xlink:href="#SvgjsSymbol1003" x="387.5" y="300" fill="hsl(44, 63%, 39%)"></use><use xlink:href="#SvgjsSymbol1004" x="387.5" y="300" fill="#d6b054"></use><use xlink:href="#SvgjsSymbol1005" x="387.5" y="300" fill="#705500"></use></g><g><use xlink:href="#SvgjsSymbol1003" x="387.5" y="325" fill="hsl(44, 63%, 39%)"></use><use xlink:href="#SvgjsSymbol1004" x="387.5" y="325" fill="#d6b054"></use><use xlink:href="#SvgjsSymbol1005" x="387.5" y="325" fill="#705500"></use></g><g><use xlink:href="#SvgjsSymbol1003" x="437.5" y="300" fill="hsl(44, 63%, 39%)"></use><use xlink:href="#SvgjsSymbol1004" x="437.5" y="300" fill="#d6b054"></use><use xlink:href="#SvgjsSymbol1005" x="437.5" y="300" fill="#705500"></use></g><g><use xlink:href="#SvgjsSymbol1003" x="450" y="287.5" fill="hsl(44, 63%, 39%)"></use><use xlink:href="#SvgjsSymbol1004" x="450" y="287.5" fill="#d6b054"></use><use xlink:href="#SvgjsSymbol1005" x="450" y="287.5" fill="#705500"></use></g><g><use xlink:href="#SvgjsSymbol1003" x="475" y="237.5" fill="hsl(44, 63%, 39%)"></use><use xlink:href="#SvgjsSymbol1004" x="475" y="237.5" fill="#d6b054"></use><use xlink:href="#SvgjsSymbol1005" x="475" y="237.5" fill="#705500"></use></g><g><use xlink:href="#SvgjsSymbol1003" x="462.5" y="200" fill="hsl(44, 63%, 39%)"></use><use xlink:href="#SvgjsSymbol1004" x="462.5" y="200" fill="#d6b054"></use><use xlink:href="#SvgjsSymbol1005" x="462.5" y="200" fill="#705500"></use></g><g><use xlink:href="#SvgjsSymbol1003" x="437.5" y="162.5" fill="hsl(44, 63%, 39%)"></use><use xlink:href="#SvgjsSymbol1004" x="437.5" y="162.5" fill="#d6b054"></use><use xlink:href="#SvgjsSymbol1005" x="437.5" y="162.5" fill="#705500"></use></g><g><use xlink:href="#SvgjsSymbol1003" x="425" y="150" fill="hsl(44, 63%, 39%)"></use><use xlink:href="#SvgjsSymbol1004" x="425" y="150" fill="#d6b054"></use><use xlink:href="#SvgjsSymbol1005" x="425" y="150" fill="#705500"></use></g><g><use xlink:href="#SvgjsSymbol1003" x="412.5" y="137.5" fill="hsl(44, 63%, 39%)"></use><use xlink:href="#SvgjsSymbol1004" x="412.5" y="137.5" fill="#d6b054"></use><use xlink:href="#SvgjsSymbol1005" x="412.5" y="137.5" fill="#705500"></use></g><g><use xlink:href="#SvgjsSymbol1003" x="537.5" y="162.5" fill="hsl(63, 31%, 57%)"></use><use xlink:href="#SvgjsSymbol1004" x="537.5" y="162.5" fill="#e3e59e"></use><use xlink:href="#SvgjsSymbol1005" x="537.5" y="162.5" fill="#7f8442"></use></g><g><use xlink:href="#SvgjsSymbol1003" x="525" y="200" fill="hsl(63, 31%, 57%)"></use><use xlink:href="#SvgjsSymbol1004" x="525" y="200" fill="#e3e59e"></use><use xlink:href="#SvgjsSymbol1005" x="525" y="200" fill="#7f8442"></use></g><g><use xlink:href="#SvgjsSymbol1003" x="525" y="250" fill="hsl(63, 31%, 57%)"></use><use xlink:href="#SvgjsSymbol1004" x="525" y="250" fill="#e3e59e"></use><use xlink:href="#SvgjsSymbol1005" x="525" y="250" fill="#7f8442"></use></g><g><use xlink:href="#SvgjsSymbol1003" x="525" y="287.5" fill="hsl(63, 31%, 57%)"></use><use xlink:href="#SvgjsSymbol1004" x="525" y="287.5" fill="#e3e59e"></use><use xlink:href="#SvgjsSymbol1005" x="525" y="287.5" fill="#7f8442"></use></g><g><use xlink:href="#SvgjsSymbol1003" x="562.5" y="325" fill="hsl(63, 31%, 57%)"></use><use xlink:href="#SvgjsSymbol1004" x="562.5" y="325" fill="#e3e59e"></use><use xlink:href="#SvgjsSymbol1005" x="562.5" y="325" fill="#7f8442"></use></g><g><use xlink:href="#SvgjsSymbol1003" x="587.5" y="337.5" fill="hsl(63, 31%, 57%)"></use><use xlink:href="#SvgjsSymbol1004" x="587.5" y="337.5" fill="#e3e59e"></use><use xlink:href="#SvgjsSymbol1005" x="587.5" y="337.5" fill="#7f8442"></use></g><g><use xlink:href="#SvgjsSymbol1003" x="612.5" y="325" fill="hsl(63, 31%, 57%)"></use><use xlink:href="#SvgjsSymbol1004" x="612.5" y="325" fill="#e3e59e"></use><use xlink:href="#SvgjsSymbol1005" x="612.5" y="325" fill="#7f8442"></use></g><g><use xlink:href="#SvgjsSymbol1003" x="650" y="300" fill="hsl(63, 31%, 57%)"></use><use xlink:href="#SvgjsSymbol1004" x="650" y="300" fill="#e3e59e"></use><use xlink:href="#SvgjsSymbol1005" x="650" y="300" fill="#7f8442"></use></g><g><use xlink:href="#SvgjsSymbol1003" x="662.5" y="275" fill="hsl(63, 31%, 57%)"></use><use xlink:href="#SvgjsSymbol1004" x="662.5" y="275" fill="#e3e59e"></use><use xlink:href="#SvgjsSymbol1005" x="662.5" y="275" fill="#7f8442"></use></g><g><use xlink:href="#SvgjsSymbol1003" x="662.5" y="250" fill="hsl(63, 31%, 57%)"></use><use xlink:href="#SvgjsSymbol1004" x="662.5" y="250" fill="#e3e59e"></use><use xlink:href="#SvgjsSymbol1005" x="662.5" y="250" fill="#7f8442"></use></g><g><use xlink:href="#SvgjsSymbol1003" x="662.5" y="225" fill="hsl(63, 31%, 57%)"></use><use xlink:href="#SvgjsSymbol1004" x="662.5" y="225" fill="#e3e59e"></use><use xlink:href="#SvgjsSymbol1005" x="662.5" y="225" fill="#7f8442"></use></g><g><use xlink:href="#SvgjsSymbol1003" x="625" y="187.5" fill="hsl(63, 31%, 57%)"></use><use xlink:href="#SvgjsSymbol1004" x="625" y="187.5" fill="#e3e59e"></use><use xlink:href="#SvgjsSymbol1005" x="625" y="187.5" fill="#7f8442"></use></g><g><use xlink:href="#SvgjsSymbol1003" x="587.5" y="162.5" fill="hsl(63, 31%, 57%)"></use><use xlink:href="#SvgjsSymbol1004" x="587.5" y="162.5" fill="#e3e59e"></use><use xlink:href="#SvgjsSymbol1005" x="587.5" y="162.5" fill="#7f8442"></use></g><g><use xlink:href="#SvgjsSymbol1003" x="575" y="162.5" fill="hsl(63, 31%, 57%)"></use><use xlink:href="#SvgjsSymbol1004" x="575" y="162.5" fill="#e3e59e"></use><use xlink:href="#SvgjsSymbol1005" x="575" y="162.5" fill="#7f8442"></use></g><g><use xlink:href="#SvgjsSymbol1003" x="175" y="437.5" fill="hsl(252, 47%, 37%)"></use><use xlink:href="#SvgjsSymbol1004" x="175" y="437.5" fill="#755cbc"></use><use xlink:href="#SvgjsSymbol1005" x="175" y="437.5" fill="#0c0b5d"></use></g><g><use xlink:href="#SvgjsSymbol1003" x="212.5" y="400" fill="hsl(252, 47%, 37%)"></use><use xlink:href="#SvgjsSymbol1004" x="212.5" y="400" fill="#755cbc"></use><use xlink:href="#SvgjsSymbol1005" x="212.5" y="400" fill="#0c0b5d"></use></g><g><use xlink:href="#SvgjsSymbol1003" x="237.5" y="375" fill="hsl(252, 47%, 37%)"></use><use xlink:href="#SvgjsSymbol1004" x="237.5" y="375" fill="#755cbc"></use><use xlink:href="#SvgjsSymbol1005" x="237.5" y="375" fill="#0c0b5d"></use></g><g><use xlink:href="#SvgjsSymbol1003" x="262.5" y="412.5" fill="hsl(252, 47%, 37%)"></use><use xlink:href="#SvgjsSymbol1004" x="262.5" y="412.5" fill="#755cbc"></use><use xlink:href="#SvgjsSymbol1005" x="262.5" y="412.5" fill="#0c0b5d"></use></g><g><use xlink:href="#SvgjsSymbol1003" x="262.5" y="437.5" fill="hsl(252, 47%, 37%)"></use><use xlink:href="#SvgjsSymbol1004" x="262.5" y="437.5" fill="#755cbc"></use><use xlink:href="#SvgjsSymbol1005" x="262.5" y="437.5" fill="#0c0b5d"></use></g><g><use xlink:href="#SvgjsSymbol1003" x="262.5" y="500" fill="hsl(252, 47%, 37%)"></use><use xlink:href="#SvgjsSymbol1004" x="262.5" y="500" fill="#755cbc"></use><use xlink:href="#SvgjsSymbol1005" x="262.5" y="500" fill="#0c0b5d"></use></g><g><use xlink:href="#SvgjsSymbol1003" x="275" y="537.5" fill="hsl(252, 47%, 37%)"></use><use xlink:href="#SvgjsSymbol1004" x="275" y="537.5" fill="#755cbc"></use><use xlink:href="#SvgjsSymbol1005" x="275" y="537.5" fill="#0c0b5d"></use></g><g><use xlink:href="#SvgjsSymbol1003" x="212.5" y="487.5" fill="hsl(252, 47%, 37%)"></use><use xlink:href="#SvgjsSymbol1004" x="212.5" y="487.5" fill="#755cbc"></use><use xlink:href="#SvgjsSymbol1005" x="212.5" y="487.5" fill="#0c0b5d"></use></g><g><use xlink:href="#SvgjsSymbol1003" x="262.5" y="475" fill="hsl(252, 47%, 37%)"></use><use xlink:href="#SvgjsSymbol1004" x="262.5" y="475" fill="#755cbc"></use><use xlink:href="#SvgjsSymbol1005" x="262.5" y="475" fill="#0c0b5d"></use></g><g><use xlink:href="#SvgjsSymbol1003" x="162.5" y="487.5" fill="hsl(252, 47%, 37%)"></use><use xlink:href="#SvgjsSymbol1004" x="162.5" y="487.5" fill="#755cbc"></use><use xlink:href="#SvgjsSymbol1005" x="162.5" y="487.5" fill="#0c0b5d"></use></g><g><use xlink:href="#SvgjsSymbol1003" x="150" y="562.5" fill="hsl(252, 47%, 37%)"></use><use xlink:href="#SvgjsSymbol1004" x="150" y="562.5" fill="#755cbc"></use><use xlink:href="#SvgjsSymbol1005" x="150" y="562.5" fill="#0c0b5d"></use></g><g><use xlink:href="#SvgjsSymbol1003" x="350" y="412.5" fill="hsl(252, 47%, 37%)"></use><use xlink:href="#SvgjsSymbol1004" x="350" y="412.5" fill="#755cbc"></use><use xlink:href="#SvgjsSymbol1005" x="350" y="412.5" fill="#0c0b5d"></use></g><g><use xlink:href="#SvgjsSymbol1003" x="350" y="462.5" fill="hsl(252, 47%, 37%)"></use><use xlink:href="#SvgjsSymbol1004" x="350" y="462.5" fill="#755cbc"></use><use xlink:href="#SvgjsSymbol1005" x="350" y="462.5" fill="#0c0b5d"></use></g><g><use xlink:href="#SvgjsSymbol1003" x="350" y="500" fill="hsl(252, 47%, 37%)"></use><use xlink:href="#SvgjsSymbol1004" x="350" y="500" fill="#755cbc"></use><use xlink:href="#SvgjsSymbol1005" x="350" y="500" fill="#0c0b5d"></use></g><g><use xlink:href="#SvgjsSymbol1003" x="350" y="525" fill="hsl(252, 47%, 37%)"></use><use xlink:href="#SvgjsSymbol1004" x="350" y="525" fill="#755cbc"></use><use xlink:href="#SvgjsSymbol1005" x="350" y="525" fill="#0c0b5d"></use></g><g><use xlink:href="#SvgjsSymbol1003" x="350" y="550" fill="hsl(252, 47%, 37%)"></use><use xlink:href="#SvgjsSymbol1004" x="350" y="550" fill="#755cbc"></use><use xlink:href="#SvgjsSymbol1005" x="350" y="550" fill="#0c0b5d"></use></g><g><use xlink:href="#SvgjsSymbol1003" x="350" y="575" fill="hsl(252, 47%, 37%)"></use><use xlink:href="#SvgjsSymbol1004" x="350" y="575" fill="#755cbc"></use><use xlink:href="#SvgjsSymbol1005" x="350" y="575" fill="#0c0b5d"></use></g><g><use xlink:href="#SvgjsSymbol1003" x="387.5" y="425" fill="hsl(252, 47%, 37%)"></use><use xlink:href="#SvgjsSymbol1004" x="387.5" y="425" fill="#755cbc"></use><use xlink:href="#SvgjsSymbol1005" x="387.5" y="425" fill="#0c0b5d"></use></g><g><use xlink:href="#SvgjsSymbol1003" x="437.5" y="437.5" fill="hsl(252, 47%, 37%)"></use><use xlink:href="#SvgjsSymbol1004" x="437.5" y="437.5" fill="#755cbc"></use><use xlink:href="#SvgjsSymbol1005" x="437.5" y="437.5" fill="#0c0b5d"></use></g><g><use xlink:href="#SvgjsSymbol1003" x="462.5" y="450" fill="hsl(252, 47%, 37%)"></use><use xlink:href="#SvgjsSymbol1004" x="462.5" y="450" fill="#755cbc"></use><use xlink:href="#SvgjsSymbol1005" x="462.5" y="450" fill="#0c0b5d"></use></g><g><use xlink:href="#SvgjsSymbol1003" x="450" y="487.5" fill="hsl(252, 47%, 37%)"></use><use xlink:href="#SvgjsSymbol1004" x="450" y="487.5" fill="#755cbc"></use><use xlink:href="#SvgjsSymbol1005" x="450" y="487.5" fill="#0c0b5d"></use></g><g><use xlink:href="#SvgjsSymbol1003" x="425" y="500" fill="hsl(252, 47%, 37%)"></use><use xlink:href="#SvgjsSymbol1004" x="425" y="500" fill="#755cbc"></use><use xlink:href="#SvgjsSymbol1005" x="425" y="500" fill="#0c0b5d"></use></g><g><use xlink:href="#SvgjsSymbol1003" x="412.5" y="512.5" fill="hsl(252, 47%, 37%)"></use><use xlink:href="#SvgjsSymbol1004" x="412.5" y="512.5" fill="#755cbc"></use><use xlink:href="#SvgjsSymbol1005" x="412.5" y="512.5" fill="#0c0b5d"></use></g><g><use xlink:href="#SvgjsSymbol1003" x="400" y="525" fill="hsl(252, 47%, 37%)"></use><use xlink:href="#SvgjsSymbol1004" x="400" y="525" fill="#755cbc"></use><use xlink:href="#SvgjsSymbol1005" x="400" y="525" fill="#0c0b5d"></use></g><g><use xlink:href="#SvgjsSymbol1003" x="525" y="437.5" fill="hsl(252, 47%, 37%)"></use><use xlink:href="#SvgjsSymbol1004" x="525" y="437.5" fill="#755cbc"></use><use xlink:href="#SvgjsSymbol1005" x="525" y="437.5" fill="#0c0b5d"></use></g><g><use xlink:href="#SvgjsSymbol1003" x="525" y="487.5" fill="hsl(252, 47%, 37%)"></use><use xlink:href="#SvgjsSymbol1004" x="525" y="487.5" fill="#755cbc"></use><use xlink:href="#SvgjsSymbol1005" x="525" y="487.5" fill="#0c0b5d"></use></g><g><use xlink:href="#SvgjsSymbol1003" x="525" y="550" fill="hsl(252, 47%, 37%)"></use><use xlink:href="#SvgjsSymbol1004" x="525" y="550" fill="#755cbc"></use><use xlink:href="#SvgjsSymbol1005" x="525" y="550" fill="#0c0b5d"></use></g><g><use xlink:href="#SvgjsSymbol1003" x="525" y="562.5" fill="hsl(252, 47%, 37%)"></use><use xlink:href="#SvgjsSymbol1004" x="525" y="562.5" fill="#755cbc"></use><use xlink:href="#SvgjsSymbol1005" x="525" y="562.5" fill="#0c0b5d"></use></g><g><use xlink:href="#SvgjsSymbol1003" x="525" y="587.5" fill="hsl(252, 47%, 37%)"></use><use xlink:href="#SvgjsSymbol1004" x="525" y="587.5" fill="#755cbc"></use><use xlink:href="#SvgjsSymbol1005" x="525" y="587.5" fill="#0c0b5d"></use></g><g><use xlink:href="#SvgjsSymbol1003" x="525" y="612.5" fill="hsl(252, 47%, 37%)"></use><use xlink:href="#SvgjsSymbol1004" x="525" y="612.5" fill="#755cbc"></use><use xlink:href="#SvgjsSymbol1005" x="525" y="612.5" fill="#0c0b5d"></use></g><g><use xlink:href="#SvgjsSymbol1003" x="537.5" y="450" fill="hsl(252, 47%, 37%)"></use><use xlink:href="#SvgjsSymbol1004" x="537.5" y="450" fill="#755cbc"></use><use xlink:href="#SvgjsSymbol1005" x="537.5" y="450" fill="#0c0b5d"></use></g><g><use xlink:href="#SvgjsSymbol1003" x="612.5" y="450" fill="hsl(252, 47%, 37%)"></use><use xlink:href="#SvgjsSymbol1004" x="612.5" y="450" fill="#755cbc"></use><use xlink:href="#SvgjsSymbol1005" x="612.5" y="450" fill="#0c0b5d"></use></g><g><use xlink:href="#SvgjsSymbol1003" x="625" y="450" fill="hsl(252, 47%, 37%)"></use><use xlink:href="#SvgjsSymbol1004" x="625" y="450" fill="#755cbc"></use><use xlink:href="#SvgjsSymbol1005" x="625" y="450" fill="#0c0b5d"></use></g><g><use xlink:href="#SvgjsSymbol1003" x="625" y="487.5" fill="hsl(252, 47%, 37%)"></use><use xlink:href="#SvgjsSymbol1004" x="625" y="487.5" fill="#755cbc"></use><use xlink:href="#SvgjsSymbol1005" x="625" y="487.5" fill="#0c0b5d"></use></g><g><use xlink:href="#SvgjsSymbol1003" x="625" y="525" fill="hsl(252, 47%, 37%)"></use><use xlink:href="#SvgjsSymbol1004" x="625" y="525" fill="#755cbc"></use><use xlink:href="#SvgjsSymbol1005" x="625" y="525" fill="#0c0b5d"></use></g><g><use xlink:href="#SvgjsSymbol1003" x="587.5" y="550" fill="hsl(252, 47%, 37%)"></use><use xlink:href="#SvgjsSymbol1004" x="587.5" y="550" fill="#755cbc"></use><use xlink:href="#SvgjsSymbol1005" x="587.5" y="550" fill="#0c0b5d"></use></g><g><use xlink:href="#SvgjsSymbol1003" x="575" y="550" fill="hsl(252, 47%, 37%)"></use><use xlink:href="#SvgjsSymbol1004" x="575" y="550" fill="#755cbc"></use><use xlink:href="#SvgjsSymbol1005" x="575" y="550" fill="#0c0b5d"></use></g><g><use xlink:href="#SvgjsSymbol1003" x="562.5" y="550" fill="hsl(252, 47%, 37%)"></use><use xlink:href="#SvgjsSymbol1004" x="562.5" y="550" fill="#755cbc"></use><use xlink:href="#SvgjsSymbol1005" x="562.5" y="550" fill="#0c0b5d"></use></g><g><use xlink:href="#SvgjsSymbol1003" x="575" y="450" fill="hsl(252, 47%, 37%)"></use><use xlink:href="#SvgjsSymbol1004" x="575" y="450" fill="#755cbc"></use><use xlink:href="#SvgjsSymbol1005" x="575" y="450" fill="#0c0b5d"></use></g></g><g></g></svg>